<?xml version="1.0" standalone="no"?>
<!DOCTYPE svg PUBLIC "-//W3C//DTD SVG 20010904//EN"
 "http://www.w3.org/TR/2001/REC-SVG-20010904/DTD/svg10.dtd">
<svg version="1.0" xmlns="http://www.w3.org/2000/svg"
 width="940.000000pt" height="788.000000pt" viewBox="0 0 940.000000 788.000000"
 preserveAspectRatio="xMidYMid meet">

<g transform="translate(0.000000,788.000000) scale(0.100000,-0.100000)"
fill="#000000" stroke="none">
<path d="M4090 4584 c-118 -32 -203 -105 -257 -220 l-28 -59 0 -475 0 -475 29
-62 c75 -163 262 -254 465 -225 195 28 320 142 351 323 6 37 10 154 8 279 l-3
215 -215 0 -215 0 0 -115 0 -115 63 -3 62 -3 0 -118 c0 -106 -2 -121 -23 -152
-43 -64 -134 -70 -188 -13 l-24 26 -7 386 c-7 401 -5 458 18 504 26 51 109 74
162 44 44 -24 62 -65 62 -141 0 -38 4 -76 8 -83 7 -9 44 -12 153 -10 l144 3 3
55 c4 68 -13 171 -38 227 -43 97 -161 187 -278 212 -72 15 -185 13 -252 -5z"/>
<path d="M2498 4578 c-1 -2 -5 -269 -8 -595 l-5 -591 -24 -26 c-54 -58 -148
-51 -185 14 -16 27 -22 59 -26 145 l-5 110 -145 0 -145 0 -3 -104 c-3 -118 8
-183 42 -256 114 -242 515 -287 705 -80 28 31 60 80 73 113 l23 57 0 605 0
605 -147 3 c-82 1 -149 1 -150 0z"/>
<path d="M3141 4543 c-12 -45 -166 -749 -252 -1145 -32 -152 -59 -286 -59
-298 0 -20 3 -20 148 -18 l147 3 20 115 20 115 148 3 c81 1 147 0 147 -4 0
-24 34 -202 42 -216 8 -16 26 -18 153 -18 79 0 146 3 148 8 4 7 -126 624 -255
1202 l-63 285 -167 3 -167 2 -10 -37z m222 -680 c26 -159 48 -291 47 -295 0
-5 -45 -8 -100 -8 -55 0 -100 3 -100 8 0 25 95 582 99 582 3 0 28 -129 54
-287z"/>
<path d="M4803 4330 c-50 -30 -56 -52 -61 -207 -6 -197 1 -248 43 -290 29 -29
39 -33 88 -33 63 0 101 23 123 76 22 52 18 74 -11 74 -20 0 -25 -6 -31 -35 -7
-40 -45 -75 -81 -75 -13 0 -35 11 -48 25 -25 24 -25 26 -25 208 0 161 2 187
18 206 43 52 123 27 136 -44 6 -29 11 -35 33 -35 24 0 25 2 20 37 -7 44 -34
83 -68 100 -36 19 -100 16 -136 -7z"/>
<path d="M5140 4337 c-13 -7 -35 -28 -47 -46 -22 -32 -23 -43 -23 -213 0 -199
7 -230 59 -261 17 -10 50 -17 79 -17 62 0 106 32 122 88 14 51 12 338 -3 382
-23 66 -119 101 -187 67z m95 -37 c47 -18 57 -63 53 -248 l-3 -164 -28 -24
c-30 -26 -72 -31 -98 -11 -34 26 -39 54 -39 227 l0 172 29 29 c32 31 45 34 86
19z"/>
<path d="M5420 4076 l0 -276 25 0 25 0 2 208 3 207 79 -207 c77 -204 79 -208
108 -208 l28 0 -2 273 -3 272 -22 3 -23 3 -1 -208 c0 -146 -3 -204 -10 -193
-6 8 -43 101 -83 205 -67 178 -74 190 -99 193 l-27 3 0 -275z"/>
<path d="M5757 4343 c-4 -3 -7 -15 -7 -25 0 -15 8 -18 55 -18 l55 0 0 -250 0
-250 25 0 25 0 0 250 0 250 55 0 c52 0 55 1 55 25 l0 25 -128 0 c-71 0 -132
-3 -135 -7z"/>
<path d="M6090 4075 l0 -275 25 0 25 0 0 125 0 125 39 0 39 0 42 -125 c39
-116 43 -125 67 -125 16 0 23 5 21 13 -3 6 -22 62 -43 124 l-38 112 30 28 c85
79 58 234 -45 263 -20 5 -65 10 -99 10 l-63 0 0 -275z m179 201 c30 -31 37
-83 17 -129 -17 -42 -46 -57 -107 -57 l-39 0 0 105 0 105 53 0 c43 0 58 -5 76
-24z"/>
<path d="M6464 4334 c-58 -28 -64 -52 -64 -259 0 -205 6 -232 60 -260 64 -33
156 -11 185 45 12 23 15 68 15 215 0 205 -6 232 -60 260 -37 19 -96 19 -136
-1z m129 -55 c15 -19 17 -45 17 -206 0 -182 0 -184 -25 -208 -15 -16 -36 -25
-55 -25 -19 0 -40 9 -55 25 -25 24 -25 26 -25 207 1 128 4 188 13 199 34 43
97 47 130 8z"/>
<path d="M6745 4337 c-3 -7 -4 -129 -3 -272 l3 -260 118 -3 117 -3 0 26 c0 25
0 25 -95 25 l-95 0 0 250 c0 245 0 250 -20 250 -11 0 -23 -6 -25 -13z"/>
<path d="M7037 4343 c-4 -3 -7 -127 -7 -275 l0 -268 120 0 120 0 0 25 c0 25 0
25 -95 25 l-95 0 0 100 0 100 66 0 c62 0 65 1 62 23 -3 20 -9 22 -65 25 l-63
3 0 99 0 100 95 0 c95 0 95 0 95 25 l0 25 -113 0 c-63 0 -117 -3 -120 -7z"/>
<path d="M7480 4076 l0 -276 70 0 c86 0 133 18 160 62 18 30 20 50 20 206 0
248 -13 270 -165 280 l-85 5 0 -277z m155 218 c36 -14 45 -57 45 -219 0 -206
-9 -225 -106 -225 l-44 0 0 225 0 225 44 0 c24 0 52 -3 61 -6z"/>
<path d="M7817 4343 c-4 -3 -7 -127 -7 -275 l0 -268 120 0 120 0 0 25 c0 25 0
25 -95 25 l-95 0 0 100 0 100 66 0 c62 0 65 1 62 23 -3 20 -9 22 -65 25 l-63
3 0 99 0 100 95 0 c95 0 95 0 95 25 l0 25 -113 0 c-63 0 -117 -3 -120 -7z"/>
<path d="M4814 3681 c-12 -5 -31 -22 -43 -37 -20 -25 -21 -37 -21 -231 l0
-205 34 -34 c30 -30 40 -34 86 -34 102 0 140 51 140 190 l0 80 -65 0 c-58 0
-65 -2 -65 -19 0 -16 8 -20 38 -23 l37 -3 -1 -69 c-1 -62 -3 -72 -28 -93 -35
-30 -71 -29 -101 2 -25 24 -25 26 -25 208 0 205 5 221 65 233 45 8 82 -25 91
-81 5 -35 10 -45 25 -45 42 0 35 81 -10 132 -23 26 -36 32 -82 34 -30 2 -64 0
-75 -5z"/>
<path d="M5156 3673 c-6 -20 -116 -522 -116 -529 0 -2 11 -4 24 -4 22 0 26 7
36 55 l12 56 76 -3 76 -3 11 -50 c8 -40 14 -51 33 -53 16 -3 22 2 22 16 0 21
-109 512 -117 525 -9 14 -52 7 -57 -10z m69 -231 c14 -67 25 -129 25 -137 0
-12 -14 -15 -66 -15 -64 0 -66 1 -61 23 3 12 18 82 33 156 19 92 30 128 36
115 4 -11 19 -74 33 -142z"/>
<path d="M5400 3673 c-37 -25 -48 -44 -55 -88 -11 -69 16 -117 105 -185 99
-77 118 -116 85 -179 -37 -72 -128 -45 -142 43 -4 27 -11 36 -25 36 -26 0 -33
-25 -19 -70 17 -58 61 -90 123 -90 43 0 54 4 83 33 66 66 57 160 -22 224 -136
110 -158 144 -133 202 11 28 46 51 76 51 28 0 64 -47 64 -85 0 -31 3 -35 25
-35 22 0 25 4 25 35 0 75 -51 125 -127 125 -21 0 -50 -8 -63 -17z"/>
<path d="M5630 3665 c0 -24 3 -25 55 -25 l55 0 0 -250 0 -250 25 0 25 0 0 250
0 250 55 0 c52 0 55 1 55 25 l0 25 -135 0 -135 0 0 -25z"/>
<path d="M5994 3674 c-58 -28 -64 -52 -64 -259 0 -205 6 -232 60 -260 64 -33
156 -11 185 45 12 23 15 68 15 215 0 205 -6 232 -60 260 -37 19 -96 19 -136
-1z m129 -55 c15 -19 17 -45 17 -206 0 -182 0 -184 -25 -208 -15 -16 -36 -25
-55 -25 -19 0 -40 9 -55 25 -25 24 -25 26 -25 207 1 128 4 188 13 199 34 43
97 47 130 8z"/>
<path d="M6304 3671 c-52 -32 -69 -112 -37 -178 9 -19 46 -58 82 -87 93 -75
106 -91 106 -136 0 -64 -54 -105 -110 -84 -20 8 -45 56 -45 89 0 20 -5 25 -25
25 -21 0 -25 -5 -25 -31 0 -45 28 -98 61 -114 46 -24 112 -19 148 11 52 43 63
132 24 191 -8 12 -46 45 -85 75 -38 29 -76 65 -84 80 -35 68 5 147 69 134 40
-8 66 -41 67 -83 0 -28 4 -33 25 -33 21 0 25 5 25 31 0 102 -109 163 -196 110z"/>
</g>
</svg>
