<?xml version="1.0" standalone="no"?>
<!DOCTYPE svg PUBLIC "-//W3C//DTD SVG 20010904//EN"
 "http://www.w3.org/TR/2001/REC-SVG-20010904/DTD/svg10.dtd">
<svg version="1.0" xmlns="http://www.w3.org/2000/svg"
 width="940.000000pt" height="788.000000pt" viewBox="0 0 940.000000 788.000000"
 preserveAspectRatio="xMidYMid meet">

<g transform="translate(0.000000,788.000000) scale(0.100000,-0.100000)"
fill="#000000" stroke="none">
<path d="M7130 6824 c-277 -36 -471 -106 -640 -232 -215 -160 -337 -354 -407
-647 -16 -63 -18 -185 -21 -1260 -2 -787 0 -1221 7 -1281 51 -439 353 -793
784 -917 267 -78 625 -74 889 9 345 109 608 369 713 704 52 166 55 221 55 911
0 629 0 637 -21 663 l-20 26 -578 0 -578 0 -21 -23 c-22 -23 -22 -29 -22 -325
0 -289 1 -303 20 -322 18 -18 33 -20 173 -20 83 0 158 -4 165 -9 11 -6 13 -72
10 -327 l-3 -319 -33 -71 c-56 -119 -142 -186 -260 -202 -204 -28 -357 82
-401 289 -9 40 -11 350 -9 1194 l3 1140 23 57 c28 70 107 159 166 188 93 44
232 45 319 0 53 -27 111 -83 142 -137 43 -72 55 -143 55 -319 0 -90 4 -174 10
-189 6 -16 25 -32 47 -42 33 -14 82 -15 403 -9 352 7 366 8 388 28 21 21 22
27 22 207 0 323 -50 529 -174 720 -174 268 -439 439 -766 496 -92 16 -370 28
-440 19z"/>
<path d="M2349 6761 l-24 -19 -5 -1639 c-6 -1813 0 -1674 -70 -1782 -60 -95
-155 -143 -281 -143 -180 -1 -300 115 -328 317 -6 42 -11 181 -11 309 0 230 0
233 -23 254 -23 22 -27 22 -410 22 -374 0 -388 -1 -407 -20 -19 -19 -20 -33
-20 -319 0 -324 8 -406 56 -559 85 -269 285 -498 547 -626 193 -94 398 -132
657 -123 372 14 646 127 862 355 167 177 258 381 288 648 8 70 10 565 8 1702
l-3 1604 -24 19 c-22 18 -44 19 -406 19 -362 0 -384 -1 -406 -19z"/>
<path d="M4206 6758 c-26 -24 -46 -112 -640 -2848 -276 -1269 -296 -1364 -296
-1382 0 -9 7 -24 16 -32 13 -14 65 -16 413 -16 370 0 399 1 414 18 11 12 33
118 70 336 36 210 59 321 68 327 18 11 800 11 818 0 9 -6 32 -118 68 -327 37
-215 60 -325 70 -336 15 -17 48 -18 424 -18 357 0 410 2 423 16 9 8 16 20 16
26 0 35 -895 4169 -912 4211 -6 16 -22 33 -35 38 -13 5 -220 9 -458 9 l-434 0
-25 -22z m459 -1210 c11 -28 293 -1693 289 -1700 -3 -5 -138 -8 -300 -8 -287
0 -294 0 -294 20 0 21 268 1666 275 1688 3 6 9 12 15 12 6 0 13 -6 15 -12z"/>
<path d="M2165 2143 c-32 -8 -75 -54 -85 -93 -19 -76 -53 -337 -46 -364 26
-103 180 -125 236 -34 29 47 27 78 -5 78 -18 0 -25 -5 -25 -19 0 -35 -38 -71
-76 -71 -39 0 -84 36 -84 67 0 40 51 335 60 353 39 72 140 42 140 -41 0 -38 2
-40 28 -37 34 4 41 41 16 93 -24 51 -100 83 -159 68z"/>
<path d="M7140 2128 c-41 -28 -60 -61 -60 -106 0 -73 44 -123 159 -181 64 -33
91 -66 91 -113 0 -99 -123 -120 -148 -25 -11 43 -52 52 -52 12 0 -64 53 -115
120 -115 82 0 130 49 130 133 0 64 -31 104 -120 154 -41 24 -85 53 -97 66 -55
55 -29 147 41 147 37 0 63 -23 75 -66 5 -22 14 -30 34 -32 30 -4 31 -2 17 49
-24 84 -121 124 -190 77z"/>
<path d="M6866 2099 c-27 -4 -49 -17 -68 -38 -24 -27 -28 -40 -28 -89 0 -83
37 -327 54 -361 17 -31 70 -61 110 -61 71 0 136 60 136 125 0 52 -40 328 -52
358 -21 53 -79 78 -152 66z m75 -52 c29 -22 37 -51 59 -220 l23 -168 -20 -27
c-28 -38 -90 -43 -121 -9 -18 19 -25 49 -42 171 -11 82 -20 164 -20 183 0 63
74 106 121 70z"/>
<path d="M2454 2081 c-42 -26 -60 -78 -79 -231 -26 -214 -20 -251 45 -285 37
-19 103 -19 139 0 44 22 58 67 82 253 21 162 22 174 6 206 -21 46 -57 68 -115
73 -35 3 -55 -1 -78 -16z m139 -62 c19 -27 19 -28 -3 -194 -12 -92 -26 -178
-32 -191 -25 -53 -108 -55 -137 -2 -14 24 -14 42 3 175 28 232 34 245 110 240
29 -1 44 -9 59 -28z"/>
<path d="M2750 2064 c0 -5 -13 -126 -29 -269 -16 -143 -27 -263 -24 -267 2 -5
13 -8 23 -8 23 0 24 8 46 220 9 91 20 168 23 172 4 4 31 -87 60 -202 l54 -210
29 0 c15 0 28 2 28 5 0 9 50 452 55 493 6 40 5 42 -19 42 -30 0 -29 1 -52
-220 -9 -91 -20 -168 -24 -173 -3 -4 -30 87 -60 203 -34 135 -57 210 -66 210
-7 0 -19 3 -28 6 -9 3 -16 2 -16 -2z"/>
<path d="M6533 2056 c-99 -12 -109 -16 -99 -41 5 -13 17 -16 58 -13 l52 3 28
-235 c15 -129 27 -238 28 -242 0 -14 50 -9 50 5 0 6 -11 107 -25 222 -31 266
-31 265 -1 265 52 0 86 12 86 31 0 22 -31 23 -177 5z"/>
<path d="M3078 2012 c-7 -25 8 -32 63 -32 25 0 39 -5 39 -12 0 -7 -9 -110 -20
-228 -25 -274 -26 -260 5 -260 14 0 25 6 25 13 0 6 9 107 20 222 11 116 20
221 20 234 0 23 2 24 60 18 58 -6 60 -6 60 17 0 22 -5 24 -77 30 -43 3 -103 9
-134 12 -51 6 -57 4 -61 -14z"/>
<path d="M6212 2017 c-38 -22 -56 -58 -56 -114 0 -68 18 -93 122 -163 81 -55
112 -93 112 -140 0 -27 -52 -80 -78 -80 -32 0 -71 38 -78 75 -5 29 -11 35 -31
35 -24 0 -25 -3 -20 -37 13 -76 64 -116 140 -110 78 7 127 73 114 154 -9 55
-32 80 -123 139 -65 42 -89 64 -100 90 -21 49 -5 97 38 115 43 18 78 -3 98
-59 11 -33 19 -42 37 -42 26 0 27 9 13 62 -16 54 -61 88 -118 88 -26 -1 -57
-6 -70 -13z"/>
<path d="M3406 1979 c-2 -13 -10 -103 -16 -199 -6 -96 -13 -208 -17 -247 l-6
-73 27 0 c18 0 26 5 26 18 2 43 18 224 21 226 2 2 20 1 40 -1 l35 -5 28 -116
c31 -127 38 -142 68 -142 16 0 19 5 14 23 -3 12 -19 71 -35 130 l-30 108 25
11 c41 19 69 75 69 139 0 99 -41 136 -163 146 -79 6 -81 5 -86 -18z m169 -54
c19 -18 25 -35 25 -69 0 -59 -16 -92 -51 -107 -25 -10 -94 -8 -105 3 -1 2 0
47 3 101 l6 97 49 0 c39 0 54 -5 73 -25z"/>
<path d="M5945 1988 c-3 -13 -75 -516 -75 -530 0 -5 11 -8 24 -8 24 0 36 28
36 85 0 19 7 23 46 29 26 3 61 6 79 6 29 0 32 -3 44 -50 11 -43 16 -50 37 -50
13 0 24 3 24 8 1 4 -34 123 -77 265 -77 256 -78 257 -106 257 -15 0 -29 -6
-32 -12z m123 -373 c-2 -1 -31 -5 -65 -8 -43 -3 -63 -2 -63 6 0 20 31 262 36
287 5 18 18 -16 51 -129 24 -84 43 -155 41 -156z"/>
<path d="M5635 1983 c-38 -10 -74 -44 -84 -79 -11 -41 5 -355 20 -396 21 -52
55 -73 121 -73 56 0 62 2 94 37 32 36 34 41 34 112 0 40 -3 86 -6 102 -5 29
-6 29 -70 26 -64 -4 -69 -7 -58 -36 4 -11 14 -13 36 -9 39 8 48 -7 48 -83 0
-76 -26 -107 -85 -102 -64 5 -72 27 -83 218 -9 173 -4 213 28 230 55 29 116
-6 122 -70 3 -30 7 -35 28 -35 23 0 25 3 22 40 -7 88 -80 139 -167 118z"/>
<path d="M3784 1971 c-11 -5 -32 -23 -46 -40 -29 -34 -38 -98 -41 -311 -2 -96
1 -119 16 -141 36 -53 134 -70 185 -32 52 37 61 73 68 269 l7 181 -35 38 c-29
32 -42 38 -84 41 -27 2 -58 0 -70 -5z m119 -73 c19 -26 20 -35 11 -202 -9
-164 -11 -176 -33 -200 -39 -41 -101 -34 -126 14 -12 23 -13 54 -5 181 5 85
10 161 10 170 0 9 10 28 21 43 29 37 92 34 122 -6z"/>
<path d="M4045 1694 c-4 -146 -6 -266 -4 -268 2 -2 57 -6 122 -10 l117 -7 0
26 0 25 -96 0 -95 0 6 228 c3 125 8 237 11 250 4 19 0 22 -25 22 l-29 0 -7
-266z"/>
<path d="M4337 1869 c-4 -51 -7 -175 -7 -276 l0 -183 120 0 c113 0 120 1 120
20 0 18 -8 20 -92 22 l-93 3 -3 103 -3 102 66 0 c57 0 65 2 65 19 0 16 -9 19
-60 23 -33 2 -61 6 -63 9 -1 2 -1 48 1 102 l4 97 94 0 c87 0 94 1 94 20 0 19
-7 20 -104 20 -57 0 -111 2 -119 5 -11 5 -15 -12 -20 -86z"/>
<path d="M5115 1798 c3 -90 8 -214 11 -276 6 -110 7 -114 28 -108 11 3 65 6
119 6 94 0 97 1 97 23 0 21 -2 22 -94 19 l-93 -4 -7 96 c-4 53 -4 100 -1 106
3 5 33 10 66 10 52 0 59 2 59 20 0 18 -7 20 -64 20 l-65 0 -3 98 c-2 53 -2 99
0 102 1 2 45 6 97 8 85 4 95 6 95 23 0 18 -9 19 -125 19 l-126 0 6 -162z"/>
<path d="M4774 1919 c3 -17 6 -139 6 -270 l0 -239 80 0 c94 0 131 15 157 63
15 27 17 57 14 207 -4 250 -17 270 -177 270 l-86 0 6 -31z m159 -20 c41 -18
47 -49 47 -224 0 -157 -1 -165 -23 -191 -18 -21 -35 -28 -75 -32 l-52 -5 0
232 0 231 40 0 c21 0 50 -5 63 -11z"/>
</g>
</svg>
